<?xml version="1.0" standalone="no"?>
<!DOCTYPE svg PUBLIC "-//W3C//DTD SVG 20010904//EN"
 "http://www.w3.org/TR/2001/REC-SVG-20010904/DTD/svg10.dtd">
<svg version="1.0" xmlns="http://www.w3.org/2000/svg"
 width="476.000000pt" height="123.000000pt" viewBox="0 0 476.000000 123.000000"
 preserveAspectRatio="xMidYMid meet">
<metadata>
Created by potrace 1.16, written by Peter Selinger 2001-2019
</metadata>
<g transform="translate(0.000000,123.000000) scale(0.100000,-0.100000)"
fill="#000000" stroke="none">
<path d="M268 1100 c-118 -29 -200 -137 -199 -261 0 -72 25 -130 77 -183 101
-101 246 -109 359 -21 19 15 19 16 -11 46 l-31 30 -48 -25 c-58 -32 -105 -33
-163 -5 -136 66 -128 256 13 320 54 25 93 24 151 -6 l48 -25 28 27 c33 32 27
43 -43 78 -54 28 -128 38 -181 25z"/>
<path d="M2820 1099 c-134 -26 -228 -164 -205 -302 21 -121 112 -210 223 -219
37 -3 37 -3 40 38 3 41 3 41 -42 53 -84 21 -138 88 -138 172 0 135 143 215
270 150 75 -38 82 -61 82 -253 l0 -168 45 0 45 0 0 260 0 260 -45 0 c-38 0
-45 -3 -45 -19 0 -19 -2 -19 -52 4 -64 29 -118 36 -178 24z"/>
<path d="M732 1088 c-44 -15 -118 -82 -141 -127 -10 -20 -22 -55 -26 -78 l-7
-43 45 0 c44 0 45 0 56 43 14 57 45 95 95 118 52 24 100 24 152 0 149 -68 119
-306 -43 -337 -31 -6 -33 -9 -33 -45 0 -37 1 -39 33 -39 76 0 180 77 214 158
18 43 19 134 3 190 -17 54 -70 117 -124 144 -48 25 -172 34 -224 16z"/>
<path d="M1315 1084 c-16 -8 -37 -22 -46 -30 -22 -20 -29 -18 -29 11 0 23 -4
25 -45 25 l-45 0 2 -257 3 -258 42 -3 41 -3 4 178 c3 166 5 180 26 210 28 40
98 68 146 59 48 -9 93 -50 106 -94 5 -20 10 -108 10 -195 l0 -158 40 3 40 3 3
172 c2 156 4 174 23 199 50 68 129 91 194 57 61 -32 70 -64 70 -260 l0 -173
45 0 45 0 0 178 c0 193 -7 235 -47 283 -77 90 -263 91 -333 1 l-20 -25 -22 28
c-46 59 -183 86 -253 49z"/>
<path d="M2244 1081 c-23 -10 -45 -24 -48 -30 -12 -19 -26 -12 -26 14 0 23 -4
25 -45 25 l-45 0 0 -355 0 -355 45 0 45 0 0 129 0 130 56 -30 c73 -38 155 -40
229 -5 61 28 87 56 116 121 63 140 1 303 -136 361 -48 20 -141 18 -191 -5z
m162 -80 c122 -56 134 -231 20 -315 -39 -30 -143 -30 -183 0 -97 72 -107 205
-22 286 54 51 115 61 185 29z"/>
<path d="M3319 1090 c-73 -22 -120 -88 -112 -158 8 -78 60 -112 195 -131 88
-12 116 -26 125 -60 13 -53 -39 -84 -139 -83 -50 0 -82 7 -115 23 l-46 22 -18
-24 c-28 -36 -24 -44 34 -70 44 -20 68 -24 157 -24 93 0 109 3 144 24 110 69
100 212 -18 250 -17 6 -68 17 -114 25 -95 17 -112 27 -112 67 0 32 21 56 57
65 39 10 146 -2 181 -20 l32 -17 20 33 c19 31 19 34 3 46 -48 35 -204 54 -274
32z"/>
<path d="M3755 1087 c-79 -32 -105 -66 -105 -137 0 -89 54 -130 193 -149 97
-13 129 -33 125 -74 -5 -49 -43 -69 -130 -69 -56 0 -87 6 -123 23 l-47 22 -19
-24 c-10 -13 -17 -28 -16 -34 2 -5 25 -21 52 -35 44 -22 63 -25 155 -25 88 0
111 3 140 21 101 59 108 194 12 243 -20 10 -73 24 -117 31 -104 16 -135 32
-135 70 0 77 124 94 261 36 11 -5 20 3 32 29 l17 36 -47 21 c-58 26 -201 35
-248 15z"/>
<path d="M4224 1077 c-82 -39 -133 -113 -146 -212 -3 -17 4 -20 45 -23 45 -3
47 -2 47 24 0 15 11 46 25 70 28 47 90 84 143 84 38 0 97 -23 126 -48 27 -24
56 -91 56 -132 0 -80 -69 -165 -144 -177 -34 -5 -36 -7 -36 -46 l0 -40 49 6
c84 10 150 57 194 141 30 58 31 174 0 232 -49 93 -121 137 -233 142 -63 2 -83
-1 -126 -21z"/>
<path d="M3083 463 c-17 -3 -23 -12 -25 -41 -3 -32 -7 -37 -30 -40 -24 -3 -28
-8 -28 -33 0 -26 3 -29 30 -29 l30 0 0 -90 c0 -83 2 -93 25 -115 19 -20 34
-25 75 -25 l50 0 0 35 c0 26 -4 33 -14 29 -8 -3 -24 -1 -35 6 -18 9 -21 20
-21 85 l0 75 35 0 c32 0 35 2 35 30 0 28 -3 30 -35 30 -35 0 -35 0 -35 45 0
47 -2 49 -57 38z"/>
<path d="M3823 463 c-19 -4 -23 -11 -23 -44 0 -37 -2 -39 -30 -39 -27 0 -30
-3 -30 -30 0 -26 3 -30 29 -30 l29 0 4 -91 c3 -85 5 -92 31 -115 22 -18 40
-24 78 -24 l49 0 0 34 c0 29 -3 33 -23 29 -41 -8 -57 20 -57 98 l0 69 40 0
c38 0 40 2 40 30 0 28 -2 30 -40 30 l-40 0 0 45 c0 48 -2 49 -57 38z"/>
<path d="M3560 383 c-8 -3 -25 -15 -37 -26 l-23 -20 0 21 c0 19 -6 22 -40 22
l-40 0 0 -145 0 -145 39 0 39 0 4 101 c3 110 13 129 68 129 44 0 50 -16 50
-127 l0 -103 41 0 41 0 -4 125 c-3 111 -5 127 -24 146 -21 21 -86 34 -114 22z"/>
<path d="M4063 375 c-82 -35 -96 -197 -22 -259 36 -31 105 -35 144 -10 23 15
25 15 25 0 0 -12 10 -16 45 -16 l45 0 0 145 0 145 -40 0 c-33 0 -40 -3 -40
-20 0 -18 -2 -18 -36 5 -41 28 -74 31 -121 10z m132 -75 c23 -25 22 -105 -1
-131 -21 -23 -71 -25 -96 -2 -25 22 -25 113 0 135 34 30 68 30 97 -2z"/>
<path d="M4425 376 c-42 -18 -59 -42 -59 -82 0 -46 20 -63 96 -83 50 -13 63
-20 63 -36 0 -31 -44 -41 -101 -22 -27 9 -49 15 -50 14 -2 -1 -5 -14 -9 -28
-5 -21 -2 -27 20 -37 36 -16 140 -15 174 2 26 14 51 53 51 81 0 31 -45 65
-105 77 -49 11 -61 17 -63 35 -4 29 37 40 92 25 44 -11 52 -8 58 23 6 37 -105
58 -167 31z"/>
<path d="M3260 235 l0 -145 45 0 45 0 0 145 0 145 -45 0 -45 0 0 -145z"/>
</g>
</svg>
